<svg xmlns="http://www.w3.org/2000/svg" viewBox="0 0 490.28 422.31"><defs><style>.cls-1{fill:#fff;}</style></defs><g id="Layer_2" data-name="Layer 2"><g id="Capa_1" data-name="Capa 1"><path class="cls-1" d="M0,211.21a23.76,23.76,0,0,0,17,21.5L196.64,287l6.6,123.8a12.28,12.28,0,0,0,8.3,10.8,11.25,11.25,0,0,0,4,.7,12.15,12.15,0,0,0,9.2-4.1l63.5-70.3,90,62.3a23.61,23.61,0,0,0,13.6,4.3,24.14,24.14,0,0,0,23.5-19.2L490,14.61A12.22,12.22,0,0,0,473.44.91l-459,186.8A24.13,24.13,0,0,0,0,211.21Zm226,168.9-4.1-78.1,46,31.8Zm165.4,9.5-163.8-113.4L457.34,54Zm40.7-345.4L205,263.91l-179.4-54.2Z"/></g></g></svg>